<svg width="2560" height="770" viewBox="0 0 2560 770" fill="none" xmlns="http://www.w3.org/2000/svg">
<mask id="mask0_28_8" style="mask-type:luminance" maskUnits="userSpaceOnUse" x="0" y="0" width="2560" height="770">
<path d="M2560 0H0V770H2560V0Z" fill="white"/>
</mask>
<g mask="url(#mask0_28_8)">
<path d="M882.001 260.903C1268 149.255 1174 745 1778 745C2382 745 2302 10.3484 2302 -315.652C2302 -823.394 1830.11 -1235 1248 -1235C665.892 -1235 194 -823.394 194 -315.652C194 192.09 447.881 386.469 882.001 260.903Z" fill="url(#paint0_linear_28_8)"/>
<mask id="mask1_28_8" style="mask-type:luminance" maskUnits="userSpaceOnUse" x="194" y="-1235" width="2112" height="1980">
<path d="M882.001 260.903C1268 149.255 1174 745 1778 745C2382 745 2302 10.3484 2302 -315.652C2302 -823.394 1830.11 -1235 1248 -1235C665.892 -1235 194 -823.394 194 -315.652C194 192.09 447.881 386.469 882.001 260.903Z" fill="white"/>
</mask>
<g mask="url(#mask1_28_8)">
<path opacity="0.393206" fill-rule="evenodd" clip-rule="evenodd" d="M1269 -1228.02C1559.78 -1228.02 1823.03 -1125.22 2013.58 -959.007C2204.14 -792.795 2322 -563.176 2322 -309.546C2322 -270.406 2323.54 -225.678 2325.21 -177.268C2332.51 34.451 2342.29 316.672 2235.87 509.721C2198.06 578.316 2145.57 635.643 2073.05 674.499C2008.06 709.318 1926.98 729.3 1826 729.3C1507.41 729.3 1362.42 560.854 1239.7 418.382C1177.07 345.671 1120.21 279.714 1049.19 246.126C995.367 220.674 933.42 213.751 854.685 236.525C744.978 268.256 649.868 281.437 568.991 275.186C489.322 269.028 423.484 244.003 371.14 199.274C266.725 110.048 216 -57.4388 216 -309.546C216 -563.176 333.861 -792.795 524.417 -959.007C714.972 -1125.22 978.223 -1228.02 1269 -1228.02Z" stroke="url(#paint1_linear_28_8)" stroke-width="2"/>
</g>
<mask id="mask2_28_8" style="mask-type:luminance" maskUnits="userSpaceOnUse" x="194" y="-1235" width="2112" height="1980">
<path d="M882.001 260.903C1268 149.255 1174 745 1778 745C2382 745 2302 10.3484 2302 -315.652C2302 -823.394 1830.11 -1235 1248 -1235C665.892 -1235 194 -823.394 194 -315.652C194 192.09 447.881 386.469 882.001 260.903Z" fill="white"/>
</mask>
<g mask="url(#mask2_28_8)">
<path opacity="0.229283" fill-rule="evenodd" clip-rule="evenodd" d="M1269 -1254.19C1559.78 -1254.19 1823.03 -1151.39 2013.58 -985.174C2204.14 -818.963 2322 -589.344 2322 -335.714C2322 -271.674 2331.68 -192.645 2342.18 -106.923C2367.5 99.7397 2397.66 345.365 2308.04 513.4C2275.33 574.733 2226.65 625.715 2155.9 660.646C2092.04 692.178 2010.22 710.63 1905.99 711.855C1548.94 716.05 1374.59 533.12 1232.44 384.056C1162.13 310.33 1099.66 244.881 1026.99 214.225C971.486 190.814 910.03 187.626 834.598 216.492C708.351 264.803 607.58 289.16 527.203 292.119C443.824 295.19 382.44 275.214 337.389 235.031C232.566 141.535 216 -60.9084 216 -335.714C216 -589.344 333.861 -818.963 524.417 -985.174C714.972 -1151.39 978.223 -1254.19 1269 -1254.19Z" stroke="url(#paint2_linear_28_8)" stroke-width="2"/>
</g>
</g>
<defs>
<linearGradient id="paint0_linear_28_8" x1="1686" y1="47.9999" x2="1825.5" y2="745" gradientUnits="userSpaceOnUse">
<stop stop-color="#182935"/>
<stop offset="0.611065" stop-color="#754C0E"/>
<stop offset="1" stop-color="#FF7A00"/>
</linearGradient>
<linearGradient id="paint1_linear_28_8" x1="105882" y1="152120" x2="105882" y2="193074" gradientUnits="userSpaceOnUse">
<stop stop-color="white"/>
<stop offset="0.623743" stop-color="white"/>
<stop offset="1" stop-color="white"/>
</linearGradient>
<linearGradient id="paint2_linear_28_8" x1="107827" y1="152782" x2="107827" y2="193920" gradientUnits="userSpaceOnUse">
<stop stop-color="white"/>
<stop offset="0.623743" stop-color="white"/>
<stop offset="1" stop-color="white"/>
</linearGradient>
</defs>
</svg>
