<svg width="1400" height="787" viewBox="0 0 1400 787" fill="none" xmlns="http://www.w3.org/2000/svg">
<path d="M0 0H1400V786.27H0V0Z" fill="#182935"/>
<path d="M724.4 675.62C734.8 746.22 876.86 773.49 949.87 749.31C1022.88 725.13 1022.76 670.73 1106.61 677.81C1138.73 680.51 1184.03 705.89 1259.49 736.77C1285.09 747.25 1331.19 763.75 1397.79 786.27H1383.8L230.06 785.55C328.14 774.1 388.41 757.89 410.86 736.92C444.56 705.46 483.3 627.54 560.59 593.35C637.87 559.17 713.99 605.02 724.39 675.62H724.4ZM0 0L404.5 0.01C534.5 204.5 197.287 192.5 238.5 344C265.54 443.4 166 333 101.5 453.5C24.14 481.7 25.5 508.5 0.01 575.34V0H0ZM1115.52 0H1397.82V563.32C1180.1 659.86 1047.46 530 1115.52 391.5C1187.02 246 1383.8 199.5 1195 140C1106.61 112.144 1106.1 49.44 1115.52 0.01V0ZM673.5 0H956.13C871 44.3 829.59 176.39 752.69 158.53C668.76 139.03 685.76 51.74 673.49 0H673.5Z" fill="#1E1E1E"/>
<path d="M117.94 395.32C120.353 395.32 122.31 393.364 122.31 390.95C122.31 388.537 120.353 386.58 117.94 386.58C115.526 386.58 113.57 388.537 113.57 390.95C113.57 393.364 115.526 395.32 117.94 395.32Z" fill="#8EFF53"/>
<path d="M370.56 382.94C373.774 382.94 376.38 380.334 376.38 377.12C376.38 373.906 373.774 371.3 370.56 371.3C367.345 371.3 364.74 373.906 364.74 377.12C364.74 380.334 367.345 382.94 370.56 382.94Z" fill="#404040"/>
<path d="M422.28 244.89C427.98 238.06 427.27 231.51 433.08 231.51C438.88 231.51 437.47 237.53 442.98 241.21C448.48 244.89 447.89 261.66 435.08 258.87C422.28 256.07 416.58 251.72 422.28 244.89Z" fill="#FFD824"/>
<path d="M171.69 126.22L166.87 123.59C166.641 123.464 166.449 123.279 166.316 123.054C166.183 122.829 166.112 122.572 166.112 122.31C166.112 122.048 166.183 121.791 166.316 121.566C166.449 121.341 166.641 121.156 166.87 121.03L171.69 118.4C171.93 118.26 172.13 118.06 172.27 117.82L174.9 113C175.026 112.771 175.211 112.579 175.436 112.446C175.661 112.313 175.918 112.242 176.18 112.242C176.442 112.242 176.699 112.313 176.924 112.446C177.149 112.579 177.334 112.771 177.46 113L180.09 117.82C180.23 118.06 180.43 118.26 180.67 118.4L185.49 121.03C185.719 121.156 185.911 121.341 186.044 121.566C186.177 121.791 186.248 122.048 186.248 122.31C186.248 122.572 186.177 122.829 186.044 123.054C185.911 123.279 185.719 123.464 185.49 123.59L180.67 126.22C180.43 126.36 180.23 126.56 180.09 126.8L177.46 131.62C177.334 131.849 177.149 132.041 176.924 132.174C176.699 132.307 176.442 132.378 176.18 132.378C175.918 132.378 175.661 132.307 175.436 132.174C175.211 132.041 175.026 131.849 174.9 131.62L172.27 126.8C172.136 126.555 171.935 126.354 171.69 126.22Z" fill="#8EFF53"/>
<path d="M1084.12 142.267L1082.04 137.184C1081.94 136.942 1081.91 136.678 1081.95 136.419C1081.99 136.16 1082.09 135.916 1082.26 135.713C1082.42 135.51 1082.64 135.356 1082.89 135.265C1083.13 135.174 1083.4 135.152 1083.65 135.199L1089.05 136.201C1089.33 136.244 1089.61 136.215 1089.87 136.117L1094.95 134.038C1095.19 133.94 1095.46 133.908 1095.72 133.947C1095.98 133.986 1096.22 134.093 1096.42 134.259C1096.62 134.424 1096.78 134.64 1096.87 134.886C1096.96 135.132 1096.98 135.397 1096.94 135.654L1095.93 141.053C1095.89 141.327 1095.92 141.609 1096.02 141.869L1098.1 146.951C1098.2 147.193 1098.23 147.458 1098.19 147.717C1098.15 147.975 1098.04 148.219 1097.88 148.422C1097.71 148.625 1097.49 148.78 1097.25 148.87C1097 148.961 1096.74 148.984 1096.48 148.937L1091.08 147.934C1090.81 147.892 1090.53 147.92 1090.27 148.018L1085.18 150.097C1084.94 150.195 1084.68 150.227 1084.42 150.188C1084.16 150.149 1083.92 150.042 1083.71 149.877C1083.51 149.712 1083.36 149.495 1083.26 149.249C1083.17 149.004 1083.15 148.739 1083.2 148.481L1084.2 143.083C1084.25 142.808 1084.22 142.525 1084.12 142.267Z" fill="#FFD824"/>
<path d="M1018.44 621.542L1020.06 616.295C1020.13 616.045 1020.28 615.82 1020.47 615.645C1020.66 615.469 1020.9 615.349 1021.16 615.297C1021.42 615.245 1021.68 615.263 1021.93 615.349C1022.18 615.435 1022.39 615.585 1022.56 615.785L1026.1 619.985C1026.29 620.192 1026.52 620.348 1026.78 620.438L1032.03 622.055C1032.28 622.133 1032.51 622.276 1032.68 622.471C1032.86 622.665 1032.98 622.902 1033.03 623.159C1033.08 623.415 1033.06 623.681 1032.98 623.928C1032.89 624.175 1032.74 624.395 1032.54 624.564L1028.34 628.101C1028.13 628.286 1027.98 628.522 1027.89 628.785L1026.27 634.032C1026.19 634.282 1026.05 634.506 1025.86 634.682C1025.66 634.857 1025.42 634.977 1025.17 635.03C1024.91 635.082 1024.65 635.064 1024.4 634.978C1024.15 634.892 1023.93 634.742 1023.76 634.542L1020.23 630.342C1020.04 630.135 1019.8 629.979 1019.54 629.889L1014.29 628.271C1014.04 628.194 1013.82 628.05 1013.64 627.856C1013.47 627.662 1013.35 627.424 1013.3 627.168C1013.25 626.912 1013.26 626.646 1013.35 626.399C1013.43 626.151 1013.59 625.932 1013.78 625.763L1017.98 622.226C1018.2 622.046 1018.36 621.808 1018.44 621.542Z" fill="#B9E709"/>
<path d="M217.213 623.362L215.134 618.28C215.035 618.038 215.004 617.773 215.043 617.514C215.081 617.256 215.189 617.012 215.354 616.809C215.519 616.606 215.736 616.451 215.982 616.361C216.227 616.27 216.492 616.247 216.75 616.294L222.148 617.297C222.423 617.34 222.704 617.311 222.964 617.213L228.046 615.134C228.289 615.036 228.553 615.004 228.812 615.043C229.071 615.082 229.315 615.189 229.518 615.354C229.721 615.52 229.875 615.736 229.966 615.982C230.056 616.227 230.079 616.493 230.032 616.75L229.03 622.149C228.987 622.423 229.016 622.704 229.114 622.964L231.192 628.047C231.291 628.289 231.322 628.554 231.284 628.812C231.245 629.071 231.137 629.315 230.972 629.518C230.807 629.721 230.59 629.876 230.345 629.966C230.099 630.057 229.834 630.079 229.577 630.032L224.178 629.03C223.904 628.987 223.622 629.016 223.362 629.114L218.28 631.193C218.038 631.291 217.773 631.323 217.514 631.284C217.255 631.245 217.012 631.138 216.809 630.972C216.606 630.807 216.451 630.591 216.361 630.345C216.27 630.1 216.247 629.834 216.294 629.577L217.297 624.178C217.347 623.904 217.318 623.621 217.213 623.362Z" fill="#B9E709"/>
<path d="M244.97 268.51C243.229 267.453 241.294 266.754 239.28 266.455C237.265 266.156 235.211 266.262 233.238 266.768C231.265 267.273 229.413 268.168 227.791 269.399C226.168 270.63 224.808 272.173 223.79 273.937C222.772 275.701 222.117 277.651 221.863 279.672C221.609 281.693 221.761 283.744 222.311 285.705C222.86 287.666 223.796 289.498 225.063 291.092C226.33 292.687 227.903 294.012 229.69 294.99C233.198 296.954 237.338 297.458 241.214 296.392C245.091 295.326 248.391 292.777 250.402 289.295C252.412 285.814 252.97 281.68 251.955 277.79C250.941 273.9 248.435 270.566 244.98 268.51H244.97ZM242.79 271.91C244.516 272.902 245.96 274.318 246.986 276.024C248.011 277.73 248.584 279.67 248.65 281.66C246.06 281.86 243.88 281.73 239.38 279.11C234.88 276.5 233.24 274.46 231.46 271.69C233.212 270.763 235.171 270.297 237.153 270.335C239.135 270.374 241.075 270.916 242.79 271.91ZM236.69 283.61C236.452 283.497 236.239 283.336 236.066 283.137C235.893 282.938 235.764 282.705 235.685 282.454C235.606 282.202 235.581 281.937 235.61 281.675C235.638 281.413 235.721 281.16 235.853 280.931C235.984 280.703 236.162 280.504 236.374 280.347C236.586 280.191 236.828 280.08 237.085 280.022C237.342 279.963 237.609 279.959 237.868 280.008C238.127 280.058 238.373 280.161 238.59 280.31C238.986 280.582 239.264 280.993 239.371 281.462C239.477 281.93 239.403 282.421 239.163 282.837C238.924 283.253 238.536 283.564 238.078 283.707C237.619 283.851 237.124 283.816 236.69 283.61ZM227.65 276.14C232.18 278.75 233.29 285.3 230.2 290.84C228.115 289.08 226.717 286.642 226.251 283.954C225.785 281.266 226.28 278.499 227.65 276.14ZM233.77 292.71C237.02 287.26 243.24 284.95 247.77 287.56C246.413 289.926 244.266 291.739 241.706 292.681C239.146 293.623 236.337 293.633 233.77 292.71Z" fill="#7878FF"/>
<path d="M1228.44 235.49L1217.19 230.984C1213.2 229.385 1211.52 231.019 1210.04 233.249L1204.75 241.19L1230.39 251.461L1232.05 242.069C1232.51 239.428 1232.43 237.089 1228.44 235.49Z" stroke="#FF7A00" stroke-width="3" stroke-linecap="round" stroke-linejoin="round"/>
<path d="M1227.91 266.869C1227.34 268.814 1225.18 269.828 1223.26 269.058L1220.25 267.851C1218.52 267.158 1218.57 266.325 1218.64 265.29L1218.7 264.2C1218.78 262.707 1218.84 261.71 1216.54 260.786L1208.33 257.499C1206.03 256.574 1205.29 257.433 1204.41 258.474L1203.7 259.307C1203.03 260.098 1202.5 260.739 1200.77 260.045L1197.76 258.839C1195.83 258.068 1194.98 255.847 1195.9 254.043L1200.71 244.646C1201.9 242.333 1203.15 240.548 1207.35 242.23L1227.79 250.421C1231.99 252.103 1231.66 254.26 1230.92 256.753L1227.91 266.869Z" stroke="#FF7A00" stroke-width="3" stroke-linecap="round" stroke-linejoin="round"/>
<path d="M1206.68 236.384L1205.08 235.742" stroke="#FF7A00" stroke-width="3" stroke-linecap="round" stroke-linejoin="round"/>
<path d="M1233.91 247.297L1232.31 246.655" stroke="#FF7A00" stroke-width="3" stroke-linecap="round" stroke-linejoin="round"/>
<path d="M1222.71 233.509L1221.42 236.713" stroke="#FF7A00" stroke-width="3" stroke-linecap="round" stroke-linejoin="round"/>
<path d="M1219.02 235.751L1223.82 237.676" stroke="#FF7A00" stroke-width="3" stroke-linecap="round" stroke-linejoin="round"/>
<path d="M1205.39 248.882L1210.2 250.808" stroke="#FF7A00" stroke-width="3" stroke-linecap="round" stroke-linejoin="round"/>
<path d="M1219.81 254.66L1224.61 256.586" stroke="#FF7A00" stroke-width="3" stroke-linecap="round" stroke-linejoin="round"/>
<path d="M1167.6 529.918C1169.54 528.598 1170.9 526.593 1171.43 524.312C1173.28 516.94 1165.05 510.424 1158.31 513.941C1146.79 502.036 1130.93 520.548 1144.38 530.161" stroke="white" stroke-width="2" stroke-miterlimit="10" stroke-linecap="round" stroke-linejoin="round"/>
<path d="M1147.17 529.097C1146.14 529.237 1145.15 529.623 1144.32 530.225C1137.94 535.342 1144.71 545.087 1151.73 540.93" stroke="white" stroke-width="2" stroke-miterlimit="10" stroke-linecap="round" stroke-linejoin="round"/>
<path d="M1156.39 516.159C1156.88 515.267 1157.55 514.507 1158.37 513.915" stroke="white" stroke-width="2" stroke-miterlimit="10" stroke-linecap="round" stroke-linejoin="round"/>
<path d="M1158.05 536.533L1157.16 541.403" stroke="white" stroke-width="2" stroke-miterlimit="10" stroke-linecap="round" stroke-linejoin="round"/>
<path d="M1163.8 532.548L1162.92 537.418" stroke="white" stroke-width="2" stroke-miterlimit="10" stroke-linecap="round" stroke-linejoin="round"/>
<path d="M1159.82 526.793L1158.93 531.663" stroke="white" stroke-width="2" stroke-miterlimit="10" stroke-linecap="round" stroke-linejoin="round"/>
<path d="M1154.06 530.777L1153.18 535.647" stroke="white" stroke-width="2" stroke-miterlimit="10" stroke-linecap="round" stroke-linejoin="round"/>
</svg>
