<svg width="30" height="30" viewBox="0 0 30 30" fill="none" xmlns="http://www.w3.org/2000/svg">
<path d="M12.6333 14.0583C12.55 14.05 12.45 14.05 12.3583 14.0583C10.375 13.9917 8.79999 12.3667 8.79999 10.3667C8.79999 8.32499 10.45 6.66666 12.5 6.66666C14.5417 6.66666 16.2 8.32499 16.2 10.3667C16.1917 12.3667 14.6167 13.9917 12.6333 14.0583Z" stroke="white" stroke-width="1.5" stroke-linecap="round" stroke-linejoin="round"/>
<path d="M18.675 8.33334C20.2917 8.33334 21.5917 9.64168 21.5917 11.25C21.5917 12.825 20.3417 14.1083 18.7834 14.1667C18.7167 14.1583 18.6417 14.1583 18.5667 14.1667" stroke="white" stroke-width="1.5" stroke-linecap="round" stroke-linejoin="round"/>
<path d="M8.46666 17.1333C6.45 18.4833 6.45 20.6833 8.46666 22.025C10.7583 23.5583 14.5167 23.5583 16.8083 22.025C18.825 20.675 18.825 18.475 16.8083 17.1333C14.525 15.6083 10.7667 15.6083 8.46666 17.1333Z" stroke="white" stroke-width="1.5" stroke-linecap="round" stroke-linejoin="round"/>
<path d="M20.2833 21.6667C20.8833 21.5417 21.45 21.3 21.9167 20.9417C23.2167 19.9667 23.2167 18.3583 21.9167 17.3833C21.4583 17.0333 20.9 16.8 20.3083 16.6667" stroke="white" stroke-width="1.5" stroke-linecap="round" stroke-linejoin="round"/>
</svg>
