<svg width="30" height="30" viewBox="0 0 32 32"  xmlns="http://www.w3.org/2000/svg">
<path fill-rule="evenodd" clip-rule="evenodd" d="M16 12C16 12 18.0711 12 19.5355 13.4645C19.5355 13.4645 21 14.9289 21 17C21 17 21 19.0711 19.5355 20.5355C19.5355 20.5355 18.0711 22 16 22C16 22 13.9289 22 12.4645 20.5355C12.4645 20.5355 11 19.0711 11 17C11 17 11 14.9289 12.4645 13.4645C12.4645 13.4645 13.9289 12 16 12ZM16 14C16 14 14.7574 14 13.8787 14.8787C13.8787 14.8787 13 15.7574 13 17C13 17 13 18.2426 13.8787 19.1213C13.8787 19.1213 14.7574 20 16 20C16 20 17.2426 20 18.1213 19.1213C18.1213 19.1213 19 18.2426 19 17C19 17 19 15.7574 18.1213 14.8787C18.1213 14.8787 17.2426 14 16 14Z" />
<path d="M18.9069 22.6862C20.2793 23.3724 21.2 24.6 21.2 24.6C21.3591 24.8122 21.596 24.9524 21.8586 24.99C21.9054 24.9966 21.9527 25 22 25L22.0034 25C22.2186 24.9993 22.4278 24.9291 22.6 24.8C22.8518 24.6111 23 24.3148 23 24L22.9999 23.9869C22.9971 23.775 22.9271 23.5695 22.8 23.4C21.5961 21.7947 19.8013 20.8974 19.8013 20.8974C18.0066 20 16 20 16 20C13.9934 20 12.1987 20.8974 12.1987 20.8974C10.4039 21.7947 9.2 23.4 9.2 23.4C9.07018 23.5731 9 23.7836 9 24L9.00004 24.0088C9.00043 24.0532 9.00377 24.0975 9.01005 24.1414C9.04756 24.404 9.18783 24.6409 9.4 24.8C9.5731 24.9298 9.78363 25 10 25L10.0088 25C10.0532 24.9996 10.0975 24.9962 10.1414 24.9899C10.404 24.9524 10.6409 24.8122 10.8 24.6C11.7207 23.3724 13.0931 22.6862 13.0931 22.6862C14.4656 22 16 22 16 22C17.5344 22 18.9069 22.6862 18.9069 22.6862Z" />
<path fill-rule="evenodd" clip-rule="evenodd" d="M25 3C25 3 25.8284 3 26.4142 3.58579C26.4142 3.58579 27 4.17157 27 5V27C27 27 27 27.8284 26.4142 28.4142C26.4142 28.4142 25.8284 29 25 29H7C7 29 6.17157 29 5.58578 28.4142C5.58578 28.4142 5 27.8284 5 27V5C5 5 5 4.17157 5.58578 3.58579C5.58578 3.58579 6.17157 3 7 3H25ZM25 5H7V27H25V5Z" />
<path d="M12 9H20C20.5523 9 21 8.55228 21 8C21 7.44772 20.5523 7 20 7H12C11.4477 7 11 7.44772 11 8C11 8.55228 11.4477 9 12 9Z" />
</svg>
