<svg width="90" height="90" viewBox="0 0 90 90" fill="none" xmlns="http://www.w3.org/2000/svg">
<rect width="90" height="90" rx="19" fill="#ECE3E4"/>
<path d="M69.4418 35.251C69.4418 21.5724 59.8963 12 46.256 12C32.6158 12 21.5581 23.0888 21.5581 36.7674" stroke="#FF7A00" stroke-width="4" stroke-linecap="round"/>
<path d="M10.8256 53.2809C10.8256 53.2809 16.513 48.4438 21.5581 48.3274C26.4677 48.2143 28.2055 53.2809 33.1163 53.2809C38.027 53.2809 39.7637 48.3274 44.6744 48.3274C49.5851 48.3274 51.3218 53.2809 56.2325 53.2809C61.1433 53.2809 62.88 48.3274 67.7907 48.3274C72.7014 48.3274 79.3488 53.2809 79.3488 53.2809" stroke="#182935" stroke-width="4" stroke-linecap="round"/>
<path d="M11.6511 63.1879C11.6511 63.1879 17.3385 58.3508 22.3837 58.2344C27.2932 58.1213 29.0311 63.1879 33.9418 63.1879C38.8525 63.1879 40.5892 58.2344 45.5 58.2344C50.4107 58.2344 52.1474 63.1879 57.0581 63.1879C61.9688 63.1879 63.7055 58.2344 68.6162 58.2344C73.527 58.2344 80.1744 63.1879 80.1744 63.1879" stroke="#182935" stroke-width="4" stroke-linecap="round"/>
<path d="M10 23.5581V64.8372C10 72.1325 15.914 78.0465 23.2093 78.0465H67.7907C75.086 78.0465 81 72.1325 81 64.8372V23.5581" stroke="#182935" stroke-width="4" stroke-linecap="round"/>
<path d="M33.9418 30.1628C35.3097 30.1628 36.4186 29.0539 36.4186 27.686C36.4186 26.3182 35.3097 25.2093 33.9418 25.2093C32.574 25.2093 31.4651 26.3182 31.4651 27.686C31.4651 29.0539 32.574 30.1628 33.9418 30.1628Z" fill="#FF7A00"/>
<path d="M52.9302 33.4651C51.2791 35.9419 47.722 36.7674 45.5 36.7674C43.278 36.7674 39.7209 35.9419 38.0698 33.4651" stroke="#FF7A00" stroke-width="4" stroke-linecap="round"/>
<path d="M57.0582 30.1628C58.426 30.1628 59.5349 29.0539 59.5349 27.686C59.5349 26.3182 58.426 25.2093 57.0582 25.2093C55.6903 25.2093 54.5814 26.3182 54.5814 27.686C54.5814 29.0539 55.6903 30.1628 57.0582 30.1628Z" fill="#FF7A00"/>
<path d="M29 76H61V84C61 86.7614 58.7614 89 56 89H34C31.2386 89 29 86.7614 29 84V76Z" fill="#182935"/>
<path d="M37.544 85.032C37.1547 85.032 36.8053 84.936 36.496 84.744C36.1867 84.5467 35.9413 84.2827 35.76 83.952C35.584 83.616 35.496 83.2373 35.496 82.816C35.496 82.3947 35.592 82.016 35.784 81.68C35.9813 81.344 36.2453 81.08 36.576 80.888C36.912 80.6907 37.288 80.592 37.704 80.592C38.12 80.592 38.4933 80.6907 38.824 80.888C39.1547 81.08 39.416 81.344 39.608 81.68C39.8053 82.016 39.904 82.3947 39.904 82.816H39.592C39.592 83.2373 39.5013 83.616 39.32 83.952C39.144 84.2827 38.9013 84.5467 38.592 84.744C38.2827 84.936 37.9333 85.032 37.544 85.032ZM37.704 84.312C37.976 84.312 38.2187 84.248 38.432 84.12C38.6453 83.9867 38.8133 83.808 38.936 83.584C39.0587 83.3547 39.12 83.0987 39.12 82.816C39.12 82.528 39.0587 82.272 38.936 82.048C38.8133 81.8187 38.6453 81.64 38.432 81.512C38.2187 81.3787 37.976 81.312 37.704 81.312C37.4373 81.312 37.1947 81.3787 36.976 81.512C36.7627 81.64 36.592 81.8187 36.464 82.048C36.3413 82.272 36.28 82.528 36.28 82.816C36.28 83.0987 36.3413 83.3547 36.464 83.584C36.592 83.808 36.7627 83.9867 36.976 84.12C37.1947 84.248 37.4373 84.312 37.704 84.312ZM39.496 85.008C39.3787 85.008 39.28 84.9707 39.2 84.896C39.1253 84.816 39.088 84.7173 39.088 84.6V83.376L39.24 82.528L39.904 82.816V84.6C39.904 84.7173 39.864 84.816 39.784 84.896C39.7093 84.9707 39.6133 85.008 39.496 85.008ZM42.9584 85.04C42.5904 85.04 42.2598 84.9627 41.9664 84.808C41.6784 84.648 41.4491 84.416 41.2784 84.112C41.1131 83.808 41.0304 83.4347 41.0304 82.992V81.024C41.0304 80.9067 41.0678 80.8107 41.1424 80.736C41.2224 80.656 41.3211 80.616 41.4384 80.616C41.5558 80.616 41.6518 80.656 41.7264 80.736C41.8064 80.8107 41.8464 80.9067 41.8464 81.024V82.992C41.8464 83.2907 41.9024 83.5387 42.0144 83.736C42.1264 83.928 42.2784 84.072 42.4704 84.168C42.6624 84.2587 42.8784 84.304 43.1184 84.304C43.3478 84.304 43.5504 84.2587 43.7264 84.168C43.9078 84.0773 44.0518 83.9547 44.1584 83.8C44.2651 83.6453 44.3184 83.472 44.3184 83.28H44.8224C44.8224 83.6107 44.7398 83.9093 44.5744 84.176C44.4144 84.4427 44.1931 84.6533 43.9104 84.808C43.6331 84.9627 43.3158 85.04 42.9584 85.04ZM44.7264 85C44.6091 85 44.5104 84.9627 44.4304 84.888C44.3558 84.808 44.3184 84.7093 44.3184 84.592V81.024C44.3184 80.9013 44.3558 80.8027 44.4304 80.728C44.5104 80.6533 44.6091 80.616 44.7264 80.616C44.8491 80.616 44.9478 80.6533 45.0224 80.728C45.0971 80.8027 45.1344 80.9013 45.1344 81.024V84.592C45.1344 84.7093 45.0971 84.808 45.0224 84.888C44.9478 84.9627 44.8491 85 44.7264 85ZM48.1636 85C47.8969 85 47.6569 84.9333 47.4436 84.8C47.2302 84.6613 47.0622 84.4747 46.9396 84.24C46.8169 84.0053 46.7556 83.7413 46.7556 83.448V79.632C46.7556 79.5147 46.7929 79.4187 46.8676 79.344C46.9422 79.2693 47.0382 79.232 47.1556 79.232C47.2729 79.232 47.3689 79.2693 47.4436 79.344C47.5182 79.4187 47.5556 79.5147 47.5556 79.632V83.448C47.5556 83.6613 47.6142 83.84 47.7316 83.984C47.8489 84.128 47.9929 84.2 48.1636 84.2H48.4356C48.5316 84.2 48.6116 84.2373 48.6756 84.312C48.7449 84.3867 48.7796 84.4827 48.7796 84.6C48.7796 84.7173 48.7342 84.8133 48.6436 84.888C48.5582 84.9627 48.4462 85 48.3076 85H48.1636ZM46.3876 81.472C46.2756 81.472 46.1849 81.44 46.1156 81.376C46.0462 81.312 46.0116 81.232 46.0116 81.136C46.0116 81.0293 46.0462 80.944 46.1156 80.88C46.1849 80.816 46.2756 80.784 46.3876 80.784H48.2356C48.3476 80.784 48.4382 80.816 48.5076 80.88C48.5769 80.944 48.6116 81.0293 48.6116 81.136C48.6116 81.232 48.5769 81.312 48.5076 81.376C48.4382 81.44 48.3476 81.472 48.2356 81.472H46.3876ZM51.7665 85.032C51.3345 85.032 50.9532 84.9387 50.6225 84.752C50.2918 84.56 50.0305 84.2987 49.8385 83.968C49.6518 83.632 49.5585 83.248 49.5585 82.816C49.5585 82.3787 49.6518 81.9947 49.8385 81.664C50.0305 81.328 50.2918 81.0667 50.6225 80.88C50.9532 80.688 51.3345 80.592 51.7665 80.592C52.1932 80.592 52.5718 80.688 52.9025 80.88C53.2332 81.0667 53.4918 81.328 53.6785 81.664C53.8705 81.9947 53.9665 82.3787 53.9665 82.816C53.9665 83.248 53.8732 83.632 53.6865 83.968C53.4998 84.2987 53.2412 84.56 52.9105 84.752C52.5798 84.9387 52.1985 85.032 51.7665 85.032ZM51.7665 84.312C52.0438 84.312 52.2892 84.248 52.5025 84.12C52.7158 83.992 52.8812 83.816 52.9985 83.592C53.1212 83.368 53.1825 83.1093 53.1825 82.816C53.1825 82.5227 53.1212 82.264 52.9985 82.04C52.8812 81.8107 52.7158 81.632 52.5025 81.504C52.2892 81.376 52.0438 81.312 51.7665 81.312C51.4892 81.312 51.2438 81.376 51.0305 81.504C50.8172 81.632 50.6492 81.8107 50.5265 82.04C50.4038 82.264 50.3425 82.5227 50.3425 82.816C50.3425 83.1093 50.4038 83.368 50.5265 83.592C50.6492 83.816 50.8172 83.992 51.0305 84.12C51.2438 84.248 51.4892 84.312 51.7665 84.312Z" fill="#FF7A00"/>
</svg>
