<svg width="183" height="39" viewBox="0 0 183 39" fill="none" xmlns="http://www.w3.org/2000/svg">
<rect width="39" height="39" rx="8" fill="#ECE3E4"/>
<path d="M30.0915 15.2755C30.0915 9.34805 25.9551 5.20001 20.0443 5.20001C14.1335 5.20001 9.34186 10.0051 9.34186 15.9326" stroke="#FF7A00" stroke-width="2" stroke-linecap="round"/>
<path d="M4.69107 23.0884C4.69107 23.0884 7.15561 20.9923 9.34185 20.9419C11.4693 20.8929 12.2224 23.0884 14.3504 23.0884C16.4784 23.0884 17.2309 20.9419 19.3589 20.9419C21.4869 20.9419 22.2394 23.0884 24.3674 23.0884C26.4954 23.0884 27.248 20.9419 29.376 20.9419C31.5039 20.9419 34.3845 23.0884 34.3845 23.0884" stroke="#182935" stroke-width="2" stroke-linecap="round"/>
<path d="M5.04883 27.3814C5.04883 27.3814 7.51337 25.2854 9.6996 25.2349C11.8271 25.1859 12.5802 27.3814 14.7081 27.3814C16.8361 27.3814 17.5887 25.2349 19.7167 25.2349C21.8446 25.2349 22.5972 27.3814 24.7252 27.3814C26.8532 27.3814 27.6057 25.2349 29.7337 25.2349C31.8617 25.2349 34.7422 27.3814 34.7422 27.3814" stroke="#182935" stroke-width="2" stroke-linecap="round"/>
<path d="M4.33331 10.2086V28.0962C4.33331 31.2575 6.89605 33.8202 10.0573 33.8202H29.3759C32.5373 33.8202 35.1 31.2575 35.1 28.0962V10.2086" stroke="#182935" stroke-width="2" stroke-linecap="round"/>
<path d="M22.9365 14.5016C22.2209 15.5748 20.6795 15.9326 19.7167 15.9326C18.7538 15.9326 17.2124 15.5748 16.4969 14.5016" stroke="#FF7A00" stroke-width="2" stroke-linecap="round"/>
<path d="M14.7081 13.0705C15.3009 13.0705 15.7814 12.59 15.7814 11.9973C15.7814 11.4045 15.3009 10.924 14.7081 10.924C14.1154 10.924 13.6349 11.4045 13.6349 11.9973C13.6349 12.59 14.1154 13.0705 14.7081 13.0705Z" fill="#FF7A00"/>
<path d="M24.7252 13.0705C25.3179 13.0705 25.7984 12.59 25.7984 11.9973C25.7984 11.4045 25.3179 10.924 24.7252 10.924C24.1324 10.924 23.6519 11.4045 23.6519 11.9973C23.6519 12.59 24.1324 13.0705 24.7252 13.0705Z" fill="#FF7A00"/>
<path d="M54.656 22C54.208 22 53.864 21.808 53.624 21.424C53.384 21.04 53.36 20.632 53.552 20.2L60.296 4.096C60.536 3.536 60.928 3.256 61.472 3.256C62.048 3.256 62.44 3.536 62.648 4.096L69.416 20.248C69.592 20.696 69.56 21.104 69.32 21.472C69.096 21.824 68.752 22 68.288 22C68.048 22 67.816 21.936 67.592 21.808C67.384 21.664 67.232 21.472 67.136 21.232L61.184 6.448H61.856L55.808 21.232C55.696 21.488 55.528 21.68 55.304 21.808C55.096 21.936 54.88 22 54.656 22ZM55.928 17.872L56.888 15.808H66.296L67.256 17.872H55.928ZM83.387 27.616C83.019 27.616 82.715 27.496 82.475 27.256C82.251 27.032 82.139 26.744 82.139 26.392V19.912C81.595 20.584 80.923 21.12 80.123 21.52C79.323 21.904 78.451 22.096 77.507 22.096C76.339 22.096 75.291 21.808 74.363 21.232C73.435 20.64 72.699 19.848 72.155 18.856C71.627 17.848 71.363 16.712 71.363 15.448C71.363 14.184 71.651 13.048 72.227 12.04C72.819 11.032 73.611 10.24 74.603 9.664C75.611 9.072 76.739 8.776 77.987 8.776C79.235 8.776 80.355 9.072 81.347 9.664C82.339 10.24 83.123 11.032 83.699 12.04C84.291 13.048 84.587 14.184 84.587 15.448V26.392C84.587 26.744 84.475 27.032 84.251 27.256C84.027 27.496 83.739 27.616 83.387 27.616ZM77.987 19.936C78.803 19.936 79.531 19.744 80.171 19.36C80.811 18.96 81.315 18.424 81.683 17.752C82.051 17.064 82.235 16.296 82.235 15.448C82.235 14.584 82.051 13.816 81.683 13.144C81.315 12.456 80.811 11.92 80.171 11.536C79.531 11.136 78.803 10.936 77.987 10.936C77.187 10.936 76.459 11.136 75.803 11.536C75.163 11.92 74.651 12.456 74.267 13.144C73.899 13.816 73.715 14.584 73.715 15.448C73.715 16.296 73.899 17.064 74.267 17.752C74.651 18.424 75.163 18.96 75.803 19.36C76.459 19.744 77.187 19.936 77.987 19.936ZM94.43 22.12C93.326 22.12 92.334 21.888 91.454 21.424C90.59 20.944 89.902 20.248 89.39 19.336C88.894 18.424 88.646 17.304 88.646 15.976V10.072C88.646 9.72 88.758 9.432 88.982 9.208C89.222 8.968 89.518 8.848 89.87 8.848C90.222 8.848 90.51 8.968 90.734 9.208C90.974 9.432 91.094 9.72 91.094 10.072V15.976C91.094 16.872 91.262 17.616 91.598 18.208C91.934 18.784 92.39 19.216 92.966 19.504C93.542 19.776 94.19 19.912 94.91 19.912C95.598 19.912 96.206 19.776 96.734 19.504C97.278 19.232 97.71 18.864 98.03 18.4C98.35 17.936 98.51 17.416 98.51 16.84H100.022C100.022 17.832 99.774 18.728 99.278 19.528C98.798 20.328 98.134 20.96 97.286 21.424C96.454 21.888 95.502 22.12 94.43 22.12ZM99.734 22C99.382 22 99.086 21.888 98.846 21.664C98.622 21.424 98.51 21.128 98.51 20.776V10.072C98.51 9.704 98.622 9.408 98.846 9.184C99.086 8.96 99.382 8.848 99.734 8.848C100.102 8.848 100.398 8.96 100.622 9.184C100.846 9.408 100.958 9.704 100.958 10.072V20.776C100.958 21.128 100.846 21.424 100.622 21.664C100.398 21.888 100.102 22 99.734 22ZM110.741 22.096C109.573 22.096 108.525 21.808 107.597 21.232C106.669 20.64 105.933 19.848 105.389 18.856C104.861 17.848 104.597 16.712 104.597 15.448C104.597 14.184 104.885 13.048 105.461 12.04C106.053 11.032 106.845 10.24 107.837 9.664C108.845 9.072 109.973 8.776 111.221 8.776C112.469 8.776 113.589 9.072 114.581 9.664C115.573 10.24 116.357 11.032 116.933 12.04C117.525 13.048 117.821 14.184 117.821 15.448H116.885C116.885 16.712 116.613 17.848 116.069 18.856C115.541 19.848 114.813 20.64 113.885 21.232C112.957 21.808 111.909 22.096 110.741 22.096ZM111.221 19.936C112.037 19.936 112.765 19.744 113.405 19.36C114.045 18.96 114.549 18.424 114.917 17.752C115.285 17.064 115.469 16.296 115.469 15.448C115.469 14.584 115.285 13.816 114.917 13.144C114.549 12.456 114.045 11.92 113.405 11.536C112.765 11.136 112.037 10.936 111.221 10.936C110.421 10.936 109.693 11.136 109.037 11.536C108.397 11.92 107.885 12.456 107.501 13.144C107.133 13.816 106.949 14.584 106.949 15.448C106.949 16.296 107.133 17.064 107.501 17.752C107.885 18.424 108.397 18.96 109.037 19.36C109.693 19.744 110.421 19.936 111.221 19.936ZM116.597 22.024C116.245 22.024 115.949 21.912 115.709 21.688C115.485 21.448 115.373 21.152 115.373 20.8V17.128L115.829 14.584L117.821 15.448V20.8C117.821 21.152 117.701 21.448 117.461 21.688C117.237 21.912 116.949 22.024 116.597 22.024ZM122.953 22C122.601 22 122.305 21.88 122.065 21.64C121.825 21.4 121.705 21.104 121.705 20.752V4.504C121.705 4.136 121.825 3.84 122.065 3.616C122.305 3.376 122.601 3.256 122.953 3.256H128.689C129.777 3.256 130.729 3.472 131.545 3.904C132.377 4.32 133.025 4.904 133.489 5.656C133.969 6.408 134.209 7.272 134.209 8.248C134.209 9.032 133.993 9.744 133.561 10.384C133.145 11.008 132.569 11.504 131.833 11.872C132.889 12.128 133.737 12.632 134.377 13.384C135.017 14.136 135.337 15.12 135.337 16.336C135.337 17.44 135.073 18.416 134.545 19.264C134.033 20.112 133.313 20.784 132.385 21.28C131.457 21.76 130.393 22 129.193 22H122.953ZM124.201 19.696H129.193C129.929 19.696 130.577 19.568 131.137 19.312C131.697 19.056 132.137 18.68 132.457 18.184C132.777 17.688 132.937 17.072 132.937 16.336C132.937 15.648 132.777 15.08 132.457 14.632C132.137 14.184 131.697 13.848 131.137 13.624C130.577 13.384 129.929 13.264 129.193 13.264H124.201V19.696ZM124.201 10.96H128.689C129.601 10.96 130.345 10.736 130.921 10.288C131.513 9.84 131.809 9.16 131.809 8.248C131.809 7.336 131.513 6.664 130.921 6.232C130.345 5.784 129.601 5.56 128.689 5.56H124.201V10.96ZM144.76 22.096C143.464 22.096 142.32 21.816 141.328 21.256C140.336 20.68 139.552 19.896 138.976 18.904C138.416 17.896 138.136 16.744 138.136 15.448C138.136 14.136 138.416 12.984 138.976 11.992C139.552 10.984 140.336 10.2 141.328 9.64C142.32 9.064 143.464 8.776 144.76 8.776C146.04 8.776 147.176 9.064 148.168 9.64C149.16 10.2 149.936 10.984 150.496 11.992C151.072 12.984 151.36 14.136 151.36 15.448C151.36 16.744 151.08 17.896 150.52 18.904C149.96 19.896 149.184 20.68 148.192 21.256C147.2 21.816 146.056 22.096 144.76 22.096ZM144.76 19.936C145.592 19.936 146.328 19.744 146.968 19.36C147.608 18.976 148.104 18.448 148.456 17.776C148.824 17.104 149.008 16.328 149.008 15.448C149.008 14.568 148.824 13.792 148.456 13.12C148.104 12.432 147.608 11.896 146.968 11.512C146.328 11.128 145.592 10.936 144.76 10.936C143.928 10.936 143.192 11.128 142.552 11.512C141.912 11.896 141.408 12.432 141.04 13.12C140.672 13.792 140.488 14.568 140.488 15.448C140.488 16.328 140.672 17.104 141.04 17.776C141.408 18.448 141.912 18.976 142.552 19.36C143.192 19.744 143.928 19.936 144.76 19.936ZM160.956 22.096C159.66 22.096 158.516 21.816 157.524 21.256C156.532 20.68 155.748 19.896 155.172 18.904C154.612 17.896 154.332 16.744 154.332 15.448C154.332 14.136 154.612 12.984 155.172 11.992C155.748 10.984 156.532 10.2 157.524 9.64C158.516 9.064 159.66 8.776 160.956 8.776C162.236 8.776 163.372 9.064 164.364 9.64C165.356 10.2 166.132 10.984 166.692 11.992C167.268 12.984 167.556 14.136 167.556 15.448C167.556 16.744 167.276 17.896 166.716 18.904C166.156 19.896 165.38 20.68 164.388 21.256C163.396 21.816 162.252 22.096 160.956 22.096ZM160.956 19.936C161.788 19.936 162.524 19.744 163.164 19.36C163.804 18.976 164.3 18.448 164.652 17.776C165.02 17.104 165.204 16.328 165.204 15.448C165.204 14.568 165.02 13.792 164.652 13.12C164.3 12.432 163.804 11.896 163.164 11.512C162.524 11.128 161.788 10.936 160.956 10.936C160.124 10.936 159.388 11.128 158.748 11.512C158.108 11.896 157.604 12.432 157.236 13.12C156.868 13.792 156.684 14.568 156.684 15.448C156.684 16.328 156.868 17.104 157.236 17.776C157.604 18.448 158.108 18.976 158.748 19.36C159.388 19.744 160.124 19.936 160.956 19.936ZM173.503 17.2L172.015 15.568L179.383 8.992C179.623 8.768 179.887 8.664 180.175 8.68C180.479 8.696 180.735 8.824 180.943 9.064C181.167 9.304 181.271 9.568 181.255 9.856C181.239 10.144 181.111 10.4 180.871 10.624L173.503 17.2ZM172.375 22C172.023 22 171.735 21.896 171.511 21.688C171.303 21.464 171.199 21.176 171.199 20.824V4.432C171.199 4.08 171.303 3.8 171.511 3.592C171.735 3.368 172.023 3.256 172.375 3.256C172.727 3.256 173.007 3.368 173.215 3.592C173.439 3.8 173.551 4.08 173.551 4.432V20.824C173.551 21.176 173.439 21.464 173.215 21.688C173.007 21.896 172.727 22 172.375 22ZM180.943 21.88C180.687 22.088 180.399 22.176 180.079 22.144C179.775 22.128 179.519 21.992 179.311 21.736L174.439 15.712L176.119 14.128L181.111 20.272C181.319 20.528 181.407 20.808 181.375 21.112C181.359 21.4 181.215 21.656 180.943 21.88Z" fill="#ECE3E4"/>
<path d="M86.69 35C86.5033 35 86.36 34.92 86.26 34.76C86.16 34.6 86.15 34.43 86.23 34.25L89.04 27.54C89.14 27.3067 89.3033 27.19 89.53 27.19C89.77 27.19 89.9333 27.3067 90.02 27.54L92.84 34.27C92.9133 34.4567 92.9 34.6267 92.8 34.78C92.7067 34.9267 92.5633 35 92.37 35C92.27 35 92.1733 34.9733 92.08 34.92C91.9933 34.86 91.93 34.78 91.89 34.68L89.41 28.52H89.69L87.17 34.68C87.1233 34.7867 87.0533 34.8667 86.96 34.92C86.8733 34.9733 86.7833 35 86.69 35ZM87.22 33.28L87.62 32.42H91.54L91.94 33.28H87.22ZM96.9985 35.16C96.3585 35.16 95.7918 35.0433 95.2985 34.81C94.8052 34.57 94.4185 34.24 94.1385 33.82C93.8652 33.4 93.7285 32.92 93.7285 32.38V27.71C93.7285 27.5567 93.7785 27.4333 93.8785 27.34C93.9785 27.24 94.1018 27.19 94.2485 27.19C94.4018 27.19 94.5252 27.24 94.6185 27.34C94.7185 27.4333 94.7685 27.5567 94.7685 27.71V32.38C94.7685 32.74 94.8618 33.06 95.0485 33.34C95.2418 33.6133 95.5052 33.83 95.8385 33.99C96.1785 34.1433 96.5652 34.22 96.9985 34.22C97.4185 34.22 97.7885 34.1433 98.1085 33.99C98.4352 33.83 98.6885 33.6133 98.8685 33.34C99.0552 33.06 99.1485 32.74 99.1485 32.38V27.71C99.1485 27.5567 99.1985 27.4333 99.2985 27.34C99.3985 27.24 99.5218 27.19 99.6685 27.19C99.8218 27.19 99.9452 27.24 100.039 27.34C100.132 27.4333 100.179 27.5567 100.179 27.71V32.38C100.179 32.92 100.042 33.4 99.7685 33.82C99.5018 34.24 99.1285 34.57 98.6485 34.81C98.1685 35.0433 97.6185 35.16 96.9985 35.16ZM104.486 35C104.339 35 104.216 34.95 104.116 34.85C104.016 34.75 103.966 34.6267 103.966 34.48V27.19H105.006V34.48C105.006 34.6267 104.956 34.75 104.856 34.85C104.756 34.95 104.632 35 104.486 35ZM101.806 28.15C101.666 28.15 101.549 28.1067 101.456 28.02C101.369 27.9267 101.326 27.81 101.326 27.67C101.326 27.53 101.369 27.4167 101.456 27.33C101.549 27.2367 101.666 27.19 101.806 27.19H107.156C107.296 27.19 107.409 27.2367 107.496 27.33C107.589 27.4167 107.636 27.53 107.636 27.67C107.636 27.81 107.589 27.9267 107.496 28.02C107.409 28.1067 107.296 28.15 107.156 28.15H101.806ZM111.899 35.1C111.312 35.1 110.776 35.0033 110.289 34.81C109.802 34.61 109.382 34.3333 109.029 33.98C108.682 33.62 108.412 33.1967 108.219 32.71C108.026 32.2167 107.929 31.6767 107.929 31.09C107.929 30.5033 108.026 29.9667 108.219 29.48C108.412 28.9933 108.682 28.5733 109.029 28.22C109.382 27.86 109.802 27.5833 110.289 27.39C110.776 27.19 111.312 27.09 111.899 27.09C112.486 27.09 113.019 27.19 113.499 27.39C113.986 27.5833 114.406 27.86 114.759 28.22C115.112 28.5733 115.386 28.9933 115.579 29.48C115.772 29.9667 115.869 30.5033 115.869 31.09C115.869 31.6767 115.772 32.2167 115.579 32.71C115.386 33.1967 115.112 33.62 114.759 33.98C114.406 34.3333 113.986 34.61 113.499 34.81C113.019 35.0033 112.486 35.1 111.899 35.1ZM111.899 34.16C112.332 34.16 112.729 34.0833 113.089 33.93C113.456 33.77 113.772 33.5533 114.039 33.28C114.306 33 114.509 32.6733 114.649 32.3C114.796 31.9267 114.869 31.5233 114.869 31.09C114.869 30.6567 114.796 30.2533 114.649 29.88C114.509 29.5067 114.306 29.1833 114.039 28.91C113.772 28.63 113.456 28.4133 113.089 28.26C112.729 28.1067 112.332 28.03 111.899 28.03C111.466 28.03 111.066 28.1067 110.699 28.26C110.339 28.4133 110.026 28.63 109.759 28.91C109.499 29.1833 109.296 29.5067 109.149 29.88C109.002 30.2533 108.929 30.6567 108.929 31.09C108.929 31.5233 109.002 31.9267 109.149 32.3C109.296 32.6733 109.499 33 109.759 33.28C110.026 33.5533 110.339 33.77 110.699 33.93C111.066 34.0833 111.466 34.16 111.899 34.16ZM118.018 35C117.871 35 117.748 34.95 117.648 34.85C117.548 34.75 117.498 34.6267 117.498 34.48V27.71C117.498 27.5567 117.548 27.4333 117.648 27.34C117.748 27.24 117.871 27.19 118.018 27.19C118.218 27.19 118.371 27.2833 118.478 27.47L121.608 33.74H121.288L124.338 27.47C124.445 27.2833 124.598 27.19 124.798 27.19C124.945 27.19 125.068 27.24 125.168 27.34C125.268 27.4333 125.318 27.5567 125.318 27.71V34.48C125.318 34.6267 125.265 34.75 125.158 34.85C125.058 34.95 124.938 35 124.798 35C124.651 35 124.528 34.95 124.428 34.85C124.328 34.75 124.278 34.6267 124.278 34.48V29.15L124.478 29.1L121.858 34.44C121.745 34.6133 121.595 34.7 121.408 34.7C121.188 34.7 121.028 34.5967 120.928 34.39L118.338 29.2L118.538 29.15V34.48C118.538 34.6267 118.488 34.75 118.388 34.85C118.288 34.95 118.165 35 118.018 35ZM127.012 35C126.826 35 126.682 34.92 126.582 34.76C126.482 34.6 126.472 34.43 126.552 34.25L129.362 27.54C129.462 27.3067 129.626 27.19 129.852 27.19C130.092 27.19 130.256 27.3067 130.342 27.54L133.162 34.27C133.236 34.4567 133.222 34.6267 133.122 34.78C133.029 34.9267 132.886 35 132.692 35C132.592 35 132.496 34.9733 132.402 34.92C132.316 34.86 132.252 34.78 132.212 34.68L129.732 28.52H130.012L127.492 34.68C127.446 34.7867 127.376 34.8667 127.282 34.92C127.196 34.9733 127.106 35 127.012 35ZM127.542 33.28L127.942 32.42H131.862L132.262 33.28H127.542ZM135.863 35C135.716 35 135.593 34.95 135.493 34.85C135.393 34.75 135.343 34.6267 135.343 34.48V27.19H136.383V34.48C136.383 34.6267 136.333 34.75 136.233 34.85C136.133 34.95 136.009 35 135.863 35ZM133.183 28.15C133.043 28.15 132.926 28.1067 132.833 28.02C132.746 27.9267 132.703 27.81 132.703 27.67C132.703 27.53 132.746 27.4167 132.833 27.33C132.926 27.2367 133.043 27.19 133.183 27.19H138.533C138.673 27.19 138.786 27.2367 138.873 27.33C138.966 27.4167 139.013 27.53 139.013 27.67C139.013 27.81 138.966 27.9267 138.873 28.02C138.786 28.1067 138.673 28.15 138.533 28.15H133.183ZM140.684 35C140.537 35 140.414 34.95 140.314 34.85C140.214 34.75 140.164 34.6267 140.164 34.48V27.71C140.164 27.5567 140.214 27.4333 140.314 27.34C140.414 27.24 140.537 27.19 140.684 27.19C140.837 27.19 140.961 27.24 141.054 27.34C141.154 27.4333 141.204 27.5567 141.204 27.71V34.48C141.204 34.6267 141.154 34.75 141.054 34.85C140.961 34.95 140.837 35 140.684 35ZM145.681 35.1C145.255 35.1 144.848 35.0333 144.461 34.9C144.075 34.7667 143.738 34.58 143.451 34.34C143.165 34.1 142.955 33.8233 142.821 33.51C142.755 33.37 142.755 33.24 142.821 33.12C142.895 33 143.015 32.9233 143.181 32.89C143.301 32.8633 143.418 32.8833 143.531 32.95C143.651 33.01 143.741 33.1033 143.801 33.23C143.881 33.3967 144.011 33.55 144.191 33.69C144.378 33.83 144.601 33.9433 144.861 34.03C145.121 34.1167 145.395 34.16 145.681 34.16C146.001 34.16 146.295 34.11 146.561 34.01C146.835 33.91 147.055 33.7667 147.221 33.58C147.388 33.3867 147.471 33.15 147.471 32.87C147.471 32.5167 147.331 32.2 147.051 31.92C146.778 31.64 146.325 31.4667 145.691 31.4C144.865 31.32 144.215 31.0767 143.741 30.67C143.268 30.2633 143.031 29.76 143.031 29.16C143.031 28.72 143.155 28.3467 143.401 28.04C143.648 27.7333 143.981 27.5 144.401 27.34C144.828 27.18 145.301 27.1 145.821 27.1C146.228 27.1 146.581 27.1567 146.881 27.27C147.188 27.3833 147.455 27.54 147.681 27.74C147.908 27.94 148.105 28.1767 148.271 28.45C148.365 28.5967 148.401 28.7367 148.381 28.87C148.368 28.9967 148.305 29.0967 148.191 29.17C148.065 29.25 147.928 29.2667 147.781 29.22C147.635 29.1733 147.525 29.0867 147.451 28.96C147.345 28.7667 147.215 28.6033 147.061 28.47C146.908 28.3367 146.728 28.2333 146.521 28.16C146.315 28.08 146.071 28.04 145.791 28.04C145.298 28.0333 144.885 28.1267 144.551 28.32C144.218 28.5067 144.051 28.7967 144.051 29.19C144.051 29.39 144.101 29.5833 144.201 29.77C144.308 29.95 144.498 30.1067 144.771 30.24C145.051 30.3733 145.451 30.4667 145.971 30.52C146.765 30.6 147.381 30.8433 147.821 31.25C148.268 31.65 148.491 32.18 148.491 32.84C148.491 33.22 148.411 33.55 148.251 33.83C148.098 34.11 147.888 34.3467 147.621 34.54C147.361 34.7267 147.061 34.8667 146.721 34.96C146.388 35.0533 146.041 35.1 145.681 35.1ZM149.776 35C149.589 35 149.446 34.92 149.346 34.76C149.246 34.6 149.236 34.43 149.316 34.25L152.126 27.54C152.226 27.3067 152.389 27.19 152.616 27.19C152.856 27.19 153.019 27.3067 153.106 27.54L155.926 34.27C155.999 34.4567 155.986 34.6267 155.886 34.78C155.793 34.9267 155.649 35 155.456 35C155.356 35 155.259 34.9733 155.166 34.92C155.079 34.86 155.016 34.78 154.976 34.68L152.496 28.52H152.776L150.256 34.68C150.209 34.7867 150.139 34.8667 150.046 34.92C149.959 34.9733 149.869 35 149.776 35ZM150.306 33.28L150.706 32.42H154.626L155.026 33.28H150.306ZM158.626 35C158.48 35 158.356 34.95 158.256 34.85C158.156 34.75 158.106 34.6267 158.106 34.48V27.19H159.146V34.48C159.146 34.6267 159.096 34.75 158.996 34.85C158.896 34.95 158.773 35 158.626 35ZM155.946 28.15C155.806 28.15 155.69 28.1067 155.596 28.02C155.51 27.9267 155.466 27.81 155.466 27.67C155.466 27.53 155.51 27.4167 155.596 27.33C155.69 27.2367 155.806 27.19 155.946 27.19H161.296C161.436 27.19 161.55 27.2367 161.636 27.33C161.73 27.4167 161.776 27.53 161.776 27.67C161.776 27.81 161.73 27.9267 161.636 28.02C161.55 28.1067 161.436 28.15 161.296 28.15H155.946ZM163.448 35C163.301 35 163.178 34.95 163.078 34.85C162.978 34.75 162.928 34.6267 162.928 34.48V27.71C162.928 27.5567 162.978 27.4333 163.078 27.34C163.178 27.24 163.301 27.19 163.448 27.19C163.601 27.19 163.724 27.24 163.818 27.34C163.918 27.4333 163.968 27.5567 163.968 27.71V34.48C163.968 34.6267 163.918 34.75 163.818 34.85C163.724 34.95 163.601 35 163.448 35ZM169.575 35.1C168.988 35.1 168.452 35.0033 167.965 34.81C167.478 34.61 167.058 34.3333 166.705 33.98C166.358 33.62 166.088 33.1967 165.895 32.71C165.702 32.2167 165.605 31.6767 165.605 31.09C165.605 30.5033 165.702 29.9667 165.895 29.48C166.088 28.9933 166.358 28.5733 166.705 28.22C167.058 27.86 167.478 27.5833 167.965 27.39C168.452 27.19 168.988 27.09 169.575 27.09C170.162 27.09 170.695 27.19 171.175 27.39C171.662 27.5833 172.082 27.86 172.435 28.22C172.788 28.5733 173.062 28.9933 173.255 29.48C173.448 29.9667 173.545 30.5033 173.545 31.09C173.545 31.6767 173.448 32.2167 173.255 32.71C173.062 33.1967 172.788 33.62 172.435 33.98C172.082 34.3333 171.662 34.61 171.175 34.81C170.695 35.0033 170.162 35.1 169.575 35.1ZM169.575 34.16C170.008 34.16 170.405 34.0833 170.765 33.93C171.132 33.77 171.448 33.5533 171.715 33.28C171.982 33 172.185 32.6733 172.325 32.3C172.472 31.9267 172.545 31.5233 172.545 31.09C172.545 30.6567 172.472 30.2533 172.325 29.88C172.185 29.5067 171.982 29.1833 171.715 28.91C171.448 28.63 171.132 28.4133 170.765 28.26C170.405 28.1067 170.008 28.03 169.575 28.03C169.142 28.03 168.742 28.1067 168.375 28.26C168.015 28.4133 167.702 28.63 167.435 28.91C167.175 29.1833 166.972 29.5067 166.825 29.88C166.678 30.2533 166.605 30.6567 166.605 31.09C166.605 31.5233 166.678 31.9267 166.825 32.3C166.972 32.6733 167.175 33 167.435 33.28C167.702 33.5533 168.015 33.77 168.375 33.93C168.742 34.0833 169.142 34.16 169.575 34.16ZM175.684 35C175.537 35 175.414 34.95 175.314 34.85C175.22 34.75 175.174 34.6267 175.174 34.48V27.71C175.174 27.5567 175.22 27.4333 175.314 27.34C175.414 27.24 175.537 27.19 175.684 27.19C175.844 27.19 175.977 27.2533 176.084 27.38L180.444 33.18V27.71C180.444 27.5567 180.494 27.4333 180.594 27.34C180.694 27.24 180.817 27.19 180.964 27.19C181.117 27.19 181.24 27.24 181.334 27.34C181.427 27.4333 181.474 27.5567 181.474 27.71V34.48C181.474 34.6267 181.427 34.75 181.334 34.85C181.24 34.95 181.117 35 180.964 35C180.897 35 180.824 34.9867 180.744 34.96C180.67 34.9267 180.61 34.88 180.564 34.82L176.204 29.02V34.48C176.204 34.6267 176.154 34.75 176.054 34.85C175.96 34.95 175.837 35 175.684 35Z" fill="#FF7A00"/>
</svg>
