<svg width="231" height="90" viewBox="0 0 231 90" fill="none" xmlns="http://www.w3.org/2000/svg">
<rect width="90" height="90" rx="19" fill="#ECE3E4"/>
<path d="M69.4419 35.251C69.4419 21.5724 59.8963 12 46.2561 12C32.6158 12 21.5581 23.0888 21.5581 36.7674" stroke="#FF7A00" stroke-width="4" stroke-linecap="round"/>
<path d="M10.8256 53.2809C10.8256 53.2809 16.513 48.4438 21.5581 48.3274C26.4677 48.2143 28.2056 53.2809 33.1163 53.2809C38.027 53.2809 39.7637 48.3274 44.6744 48.3274C49.5852 48.3274 51.3218 53.2809 56.2326 53.2809C61.1433 53.2809 62.88 48.3274 67.7907 48.3274C72.7014 48.3274 79.3488 53.2809 79.3488 53.2809" stroke="#182935" stroke-width="4" stroke-linecap="round"/>
<path d="M11.6512 63.1879C11.6512 63.1879 17.3386 58.3508 22.3837 58.2344C27.2933 58.1213 29.0311 63.1879 33.9419 63.1879C38.8526 63.1879 40.5893 58.2344 45.5 58.2344C50.4107 58.2344 52.1474 63.1879 57.0581 63.1879C61.9689 63.1879 63.7055 58.2344 68.6163 58.2344C73.527 58.2344 80.1744 63.1879 80.1744 63.1879" stroke="#182935" stroke-width="4" stroke-linecap="round"/>
<path d="M10 23.5581V64.8372C10 72.1325 15.914 78.0465 23.2093 78.0465H67.7907C75.086 78.0465 81 72.1325 81 64.8372V23.5581" stroke="#182935" stroke-width="4" stroke-linecap="round"/>
<path d="M33.9419 30.1628C35.3097 30.1628 36.4186 29.0539 36.4186 27.686C36.4186 26.3182 35.3097 25.2093 33.9419 25.2093C32.574 25.2093 31.4651 26.3182 31.4651 27.686C31.4651 29.0539 32.574 30.1628 33.9419 30.1628Z" fill="#FF7A00"/>
<path d="M52.9302 33.4651C51.2791 35.9419 47.722 36.7674 45.5 36.7674C43.278 36.7674 39.7209 35.9419 38.0698 33.4651" stroke="#FF7A00" stroke-width="4" stroke-linecap="round"/>
<path d="M57.0581 30.1628C58.426 30.1628 59.5349 29.0539 59.5349 27.686C59.5349 26.3182 58.426 25.2093 57.0581 25.2093C55.6903 25.2093 54.5814 26.3182 54.5814 27.686C54.5814 29.0539 55.6903 30.1628 57.0581 30.1628Z" fill="#FF7A00"/>
<path d="M102.656 43C102.208 43 101.864 42.808 101.624 42.424C101.384 42.04 101.36 41.632 101.552 41.2L108.296 25.096C108.536 24.536 108.928 24.256 109.472 24.256C110.048 24.256 110.44 24.536 110.648 25.096L117.416 41.248C117.592 41.696 117.56 42.104 117.32 42.472C117.096 42.824 116.752 43 116.288 43C116.048 43 115.816 42.936 115.592 42.808C115.384 42.664 115.232 42.472 115.136 42.232L109.184 27.448H109.856L103.808 42.232C103.696 42.488 103.528 42.68 103.304 42.808C103.096 42.936 102.88 43 102.656 43ZM103.928 38.872L104.888 36.808H114.296L115.256 38.872H103.928ZM131.387 48.616C131.019 48.616 130.715 48.496 130.475 48.256C130.251 48.032 130.139 47.744 130.139 47.392V40.912C129.595 41.584 128.923 42.12 128.123 42.52C127.323 42.904 126.451 43.096 125.507 43.096C124.339 43.096 123.291 42.808 122.363 42.232C121.435 41.64 120.699 40.848 120.155 39.856C119.627 38.848 119.363 37.712 119.363 36.448C119.363 35.184 119.651 34.048 120.227 33.04C120.819 32.032 121.611 31.24 122.603 30.664C123.611 30.072 124.739 29.776 125.987 29.776C127.235 29.776 128.355 30.072 129.347 30.664C130.339 31.24 131.123 32.032 131.699 33.04C132.291 34.048 132.587 35.184 132.587 36.448V47.392C132.587 47.744 132.475 48.032 132.251 48.256C132.027 48.496 131.739 48.616 131.387 48.616ZM125.987 40.936C126.803 40.936 127.531 40.744 128.171 40.36C128.811 39.96 129.315 39.424 129.683 38.752C130.051 38.064 130.235 37.296 130.235 36.448C130.235 35.584 130.051 34.816 129.683 34.144C129.315 33.456 128.811 32.92 128.171 32.536C127.531 32.136 126.803 31.936 125.987 31.936C125.187 31.936 124.459 32.136 123.803 32.536C123.163 32.92 122.651 33.456 122.267 34.144C121.899 34.816 121.715 35.584 121.715 36.448C121.715 37.296 121.899 38.064 122.267 38.752C122.651 39.424 123.163 39.96 123.803 40.36C124.459 40.744 125.187 40.936 125.987 40.936ZM142.43 43.12C141.326 43.12 140.334 42.888 139.454 42.424C138.59 41.944 137.902 41.248 137.39 40.336C136.894 39.424 136.646 38.304 136.646 36.976V31.072C136.646 30.72 136.758 30.432 136.982 30.208C137.222 29.968 137.518 29.848 137.87 29.848C138.222 29.848 138.51 29.968 138.734 30.208C138.974 30.432 139.094 30.72 139.094 31.072V36.976C139.094 37.872 139.262 38.616 139.598 39.208C139.934 39.784 140.39 40.216 140.966 40.504C141.542 40.776 142.19 40.912 142.91 40.912C143.598 40.912 144.206 40.776 144.734 40.504C145.278 40.232 145.71 39.864 146.03 39.4C146.35 38.936 146.51 38.416 146.51 37.84H148.022C148.022 38.832 147.774 39.728 147.278 40.528C146.798 41.328 146.134 41.96 145.286 42.424C144.454 42.888 143.502 43.12 142.43 43.12ZM147.734 43C147.382 43 147.086 42.888 146.846 42.664C146.622 42.424 146.51 42.128 146.51 41.776V31.072C146.51 30.704 146.622 30.408 146.846 30.184C147.086 29.96 147.382 29.848 147.734 29.848C148.102 29.848 148.398 29.96 148.622 30.184C148.846 30.408 148.958 30.704 148.958 31.072V41.776C148.958 42.128 148.846 42.424 148.622 42.664C148.398 42.888 148.102 43 147.734 43ZM158.741 43.096C157.573 43.096 156.525 42.808 155.597 42.232C154.669 41.64 153.933 40.848 153.389 39.856C152.861 38.848 152.597 37.712 152.597 36.448C152.597 35.184 152.885 34.048 153.461 33.04C154.053 32.032 154.845 31.24 155.837 30.664C156.845 30.072 157.973 29.776 159.221 29.776C160.469 29.776 161.589 30.072 162.581 30.664C163.573 31.24 164.357 32.032 164.933 33.04C165.525 34.048 165.821 35.184 165.821 36.448H164.885C164.885 37.712 164.613 38.848 164.069 39.856C163.541 40.848 162.813 41.64 161.885 42.232C160.957 42.808 159.909 43.096 158.741 43.096ZM159.221 40.936C160.037 40.936 160.765 40.744 161.405 40.36C162.045 39.96 162.549 39.424 162.917 38.752C163.285 38.064 163.469 37.296 163.469 36.448C163.469 35.584 163.285 34.816 162.917 34.144C162.549 33.456 162.045 32.92 161.405 32.536C160.765 32.136 160.037 31.936 159.221 31.936C158.421 31.936 157.693 32.136 157.037 32.536C156.397 32.92 155.885 33.456 155.501 34.144C155.133 34.816 154.949 35.584 154.949 36.448C154.949 37.296 155.133 38.064 155.501 38.752C155.885 39.424 156.397 39.96 157.037 40.36C157.693 40.744 158.421 40.936 159.221 40.936ZM164.597 43.024C164.245 43.024 163.949 42.912 163.709 42.688C163.485 42.448 163.373 42.152 163.373 41.8V38.128L163.829 35.584L165.821 36.448V41.8C165.821 42.152 165.701 42.448 165.461 42.688C165.237 42.912 164.949 43.024 164.597 43.024ZM170.953 43C170.601 43 170.305 42.88 170.065 42.64C169.825 42.4 169.705 42.104 169.705 41.752V25.504C169.705 25.136 169.825 24.84 170.065 24.616C170.305 24.376 170.601 24.256 170.953 24.256H176.689C177.777 24.256 178.729 24.472 179.545 24.904C180.377 25.32 181.025 25.904 181.489 26.656C181.969 27.408 182.209 28.272 182.209 29.248C182.209 30.032 181.993 30.744 181.561 31.384C181.145 32.008 180.569 32.504 179.833 32.872C180.889 33.128 181.737 33.632 182.377 34.384C183.017 35.136 183.337 36.12 183.337 37.336C183.337 38.44 183.073 39.416 182.545 40.264C182.033 41.112 181.313 41.784 180.385 42.28C179.457 42.76 178.393 43 177.193 43H170.953ZM172.201 40.696H177.193C177.929 40.696 178.577 40.568 179.137 40.312C179.697 40.056 180.137 39.68 180.457 39.184C180.777 38.688 180.937 38.072 180.937 37.336C180.937 36.648 180.777 36.08 180.457 35.632C180.137 35.184 179.697 34.848 179.137 34.624C178.577 34.384 177.929 34.264 177.193 34.264H172.201V40.696ZM172.201 31.96H176.689C177.601 31.96 178.345 31.736 178.921 31.288C179.513 30.84 179.809 30.16 179.809 29.248C179.809 28.336 179.513 27.664 178.921 27.232C178.345 26.784 177.601 26.56 176.689 26.56H172.201V31.96ZM192.76 43.096C191.464 43.096 190.32 42.816 189.328 42.256C188.336 41.68 187.552 40.896 186.976 39.904C186.416 38.896 186.136 37.744 186.136 36.448C186.136 35.136 186.416 33.984 186.976 32.992C187.552 31.984 188.336 31.2 189.328 30.64C190.32 30.064 191.464 29.776 192.76 29.776C194.04 29.776 195.176 30.064 196.168 30.64C197.16 31.2 197.936 31.984 198.496 32.992C199.072 33.984 199.36 35.136 199.36 36.448C199.36 37.744 199.08 38.896 198.52 39.904C197.96 40.896 197.184 41.68 196.192 42.256C195.2 42.816 194.056 43.096 192.76 43.096ZM192.76 40.936C193.592 40.936 194.328 40.744 194.968 40.36C195.608 39.976 196.104 39.448 196.456 38.776C196.824 38.104 197.008 37.328 197.008 36.448C197.008 35.568 196.824 34.792 196.456 34.12C196.104 33.432 195.608 32.896 194.968 32.512C194.328 32.128 193.592 31.936 192.76 31.936C191.928 31.936 191.192 32.128 190.552 32.512C189.912 32.896 189.408 33.432 189.04 34.12C188.672 34.792 188.488 35.568 188.488 36.448C188.488 37.328 188.672 38.104 189.04 38.776C189.408 39.448 189.912 39.976 190.552 40.36C191.192 40.744 191.928 40.936 192.76 40.936ZM208.956 43.096C207.66 43.096 206.516 42.816 205.524 42.256C204.532 41.68 203.748 40.896 203.172 39.904C202.612 38.896 202.332 37.744 202.332 36.448C202.332 35.136 202.612 33.984 203.172 32.992C203.748 31.984 204.532 31.2 205.524 30.64C206.516 30.064 207.66 29.776 208.956 29.776C210.236 29.776 211.372 30.064 212.364 30.64C213.356 31.2 214.132 31.984 214.692 32.992C215.268 33.984 215.556 35.136 215.556 36.448C215.556 37.744 215.276 38.896 214.716 39.904C214.156 40.896 213.38 41.68 212.388 42.256C211.396 42.816 210.252 43.096 208.956 43.096ZM208.956 40.936C209.788 40.936 210.524 40.744 211.164 40.36C211.804 39.976 212.3 39.448 212.652 38.776C213.02 38.104 213.204 37.328 213.204 36.448C213.204 35.568 213.02 34.792 212.652 34.12C212.3 33.432 211.804 32.896 211.164 32.512C210.524 32.128 209.788 31.936 208.956 31.936C208.124 31.936 207.388 32.128 206.748 32.512C206.108 32.896 205.604 33.432 205.236 34.12C204.868 34.792 204.684 35.568 204.684 36.448C204.684 37.328 204.868 38.104 205.236 38.776C205.604 39.448 206.108 39.976 206.748 40.36C207.388 40.744 208.124 40.936 208.956 40.936ZM221.503 38.2L220.015 36.568L227.383 29.992C227.623 29.768 227.887 29.664 228.175 29.68C228.479 29.696 228.735 29.824 228.943 30.064C229.167 30.304 229.271 30.568 229.255 30.856C229.239 31.144 229.111 31.4 228.871 31.624L221.503 38.2ZM220.375 43C220.023 43 219.735 42.896 219.511 42.688C219.303 42.464 219.199 42.176 219.199 41.824V25.432C219.199 25.08 219.303 24.8 219.511 24.592C219.735 24.368 220.023 24.256 220.375 24.256C220.727 24.256 221.007 24.368 221.215 24.592C221.439 24.8 221.551 25.08 221.551 25.432V41.824C221.551 42.176 221.439 42.464 221.215 42.688C221.007 42.896 220.727 43 220.375 43ZM228.943 42.88C228.687 43.088 228.399 43.176 228.079 43.144C227.775 43.128 227.519 42.992 227.311 42.736L222.439 36.712L224.119 35.128L229.111 41.272C229.319 41.528 229.407 41.808 229.375 42.112C229.359 42.4 229.215 42.656 228.943 42.88Z" fill="#182935"/>
<path d="M134.69 56C134.503 56 134.36 55.92 134.26 55.76C134.16 55.6 134.15 55.43 134.23 55.25L137.04 48.54C137.14 48.3067 137.303 48.19 137.53 48.19C137.77 48.19 137.933 48.3067 138.02 48.54L140.84 55.27C140.913 55.4567 140.9 55.6267 140.8 55.78C140.707 55.9267 140.563 56 140.37 56C140.27 56 140.173 55.9733 140.08 55.92C139.993 55.86 139.93 55.78 139.89 55.68L137.41 49.52H137.69L135.17 55.68C135.123 55.7867 135.053 55.8667 134.96 55.92C134.873 55.9733 134.783 56 134.69 56ZM135.22 54.28L135.62 53.42H139.54L139.94 54.28H135.22ZM144.999 56.16C144.359 56.16 143.792 56.0433 143.299 55.81C142.805 55.57 142.419 55.24 142.139 54.82C141.865 54.4 141.729 53.92 141.729 53.38V48.71C141.729 48.5567 141.779 48.4333 141.879 48.34C141.979 48.24 142.102 48.19 142.249 48.19C142.402 48.19 142.525 48.24 142.619 48.34C142.719 48.4333 142.769 48.5567 142.769 48.71V53.38C142.769 53.74 142.862 54.06 143.049 54.34C143.242 54.6133 143.505 54.83 143.839 54.99C144.179 55.1433 144.565 55.22 144.999 55.22C145.419 55.22 145.789 55.1433 146.109 54.99C146.435 54.83 146.689 54.6133 146.869 54.34C147.055 54.06 147.149 53.74 147.149 53.38V48.71C147.149 48.5567 147.199 48.4333 147.299 48.34C147.399 48.24 147.522 48.19 147.669 48.19C147.822 48.19 147.945 48.24 148.039 48.34C148.132 48.4333 148.179 48.5567 148.179 48.71V53.38C148.179 53.92 148.042 54.4 147.769 54.82C147.502 55.24 147.129 55.57 146.649 55.81C146.169 56.0433 145.619 56.16 144.999 56.16ZM152.486 56C152.339 56 152.216 55.95 152.116 55.85C152.016 55.75 151.966 55.6267 151.966 55.48V48.19H153.006V55.48C153.006 55.6267 152.956 55.75 152.856 55.85C152.756 55.95 152.632 56 152.486 56ZM149.806 49.15C149.666 49.15 149.549 49.1067 149.456 49.02C149.369 48.9267 149.326 48.81 149.326 48.67C149.326 48.53 149.369 48.4167 149.456 48.33C149.549 48.2367 149.666 48.19 149.806 48.19H155.156C155.296 48.19 155.409 48.2367 155.496 48.33C155.589 48.4167 155.636 48.53 155.636 48.67C155.636 48.81 155.589 48.9267 155.496 49.02C155.409 49.1067 155.296 49.15 155.156 49.15H149.806ZM159.899 56.1C159.312 56.1 158.776 56.0033 158.289 55.81C157.802 55.61 157.382 55.3333 157.029 54.98C156.682 54.62 156.412 54.1967 156.219 53.71C156.026 53.2167 155.929 52.6767 155.929 52.09C155.929 51.5033 156.026 50.9667 156.219 50.48C156.412 49.9933 156.682 49.5733 157.029 49.22C157.382 48.86 157.802 48.5833 158.289 48.39C158.776 48.19 159.312 48.09 159.899 48.09C160.486 48.09 161.019 48.19 161.499 48.39C161.986 48.5833 162.406 48.86 162.759 49.22C163.112 49.5733 163.386 49.9933 163.579 50.48C163.772 50.9667 163.869 51.5033 163.869 52.09C163.869 52.6767 163.772 53.2167 163.579 53.71C163.386 54.1967 163.112 54.62 162.759 54.98C162.406 55.3333 161.986 55.61 161.499 55.81C161.019 56.0033 160.486 56.1 159.899 56.1ZM159.899 55.16C160.332 55.16 160.729 55.0833 161.089 54.93C161.456 54.77 161.772 54.5533 162.039 54.28C162.306 54 162.509 53.6733 162.649 53.3C162.796 52.9267 162.869 52.5233 162.869 52.09C162.869 51.6567 162.796 51.2533 162.649 50.88C162.509 50.5067 162.306 50.1833 162.039 49.91C161.772 49.63 161.456 49.4133 161.089 49.26C160.729 49.1067 160.332 49.03 159.899 49.03C159.466 49.03 159.066 49.1067 158.699 49.26C158.339 49.4133 158.026 49.63 157.759 49.91C157.499 50.1833 157.296 50.5067 157.149 50.88C157.002 51.2533 156.929 51.6567 156.929 52.09C156.929 52.5233 157.002 52.9267 157.149 53.3C157.296 53.6733 157.499 54 157.759 54.28C158.026 54.5533 158.339 54.77 158.699 54.93C159.066 55.0833 159.466 55.16 159.899 55.16ZM166.018 56C165.871 56 165.748 55.95 165.648 55.85C165.548 55.75 165.498 55.6267 165.498 55.48V48.71C165.498 48.5567 165.548 48.4333 165.648 48.34C165.748 48.24 165.871 48.19 166.018 48.19C166.218 48.19 166.371 48.2833 166.478 48.47L169.608 54.74H169.288L172.338 48.47C172.445 48.2833 172.598 48.19 172.798 48.19C172.945 48.19 173.068 48.24 173.168 48.34C173.268 48.4333 173.318 48.5567 173.318 48.71V55.48C173.318 55.6267 173.265 55.75 173.158 55.85C173.058 55.95 172.938 56 172.798 56C172.651 56 172.528 55.95 172.428 55.85C172.328 55.75 172.278 55.6267 172.278 55.48V50.15L172.478 50.1L169.858 55.44C169.745 55.6133 169.595 55.7 169.408 55.7C169.188 55.7 169.028 55.5967 168.928 55.39L166.338 50.2L166.538 50.15V55.48C166.538 55.6267 166.488 55.75 166.388 55.85C166.288 55.95 166.165 56 166.018 56ZM175.012 56C174.826 56 174.682 55.92 174.582 55.76C174.482 55.6 174.472 55.43 174.552 55.25L177.362 48.54C177.462 48.3067 177.626 48.19 177.852 48.19C178.092 48.19 178.256 48.3067 178.342 48.54L181.162 55.27C181.236 55.4567 181.222 55.6267 181.122 55.78C181.029 55.9267 180.886 56 180.692 56C180.592 56 180.496 55.9733 180.402 55.92C180.316 55.86 180.252 55.78 180.212 55.68L177.732 49.52H178.012L175.492 55.68C175.446 55.7867 175.376 55.8667 175.282 55.92C175.196 55.9733 175.106 56 175.012 56ZM175.542 54.28L175.942 53.42H179.862L180.262 54.28H175.542ZM183.863 56C183.716 56 183.593 55.95 183.493 55.85C183.393 55.75 183.343 55.6267 183.343 55.48V48.19H184.383V55.48C184.383 55.6267 184.333 55.75 184.233 55.85C184.133 55.95 184.009 56 183.863 56ZM181.183 49.15C181.043 49.15 180.926 49.1067 180.833 49.02C180.746 48.9267 180.703 48.81 180.703 48.67C180.703 48.53 180.746 48.4167 180.833 48.33C180.926 48.2367 181.043 48.19 181.183 48.19H186.533C186.673 48.19 186.786 48.2367 186.873 48.33C186.966 48.4167 187.013 48.53 187.013 48.67C187.013 48.81 186.966 48.9267 186.873 49.02C186.786 49.1067 186.673 49.15 186.533 49.15H181.183ZM188.684 56C188.537 56 188.414 55.95 188.314 55.85C188.214 55.75 188.164 55.6267 188.164 55.48V48.71C188.164 48.5567 188.214 48.4333 188.314 48.34C188.414 48.24 188.537 48.19 188.684 48.19C188.837 48.19 188.961 48.24 189.054 48.34C189.154 48.4333 189.204 48.5567 189.204 48.71V55.48C189.204 55.6267 189.154 55.75 189.054 55.85C188.961 55.95 188.837 56 188.684 56ZM193.681 56.1C193.255 56.1 192.848 56.0333 192.461 55.9C192.075 55.7667 191.738 55.58 191.451 55.34C191.165 55.1 190.955 54.8233 190.821 54.51C190.755 54.37 190.755 54.24 190.821 54.12C190.895 54 191.015 53.9233 191.181 53.89C191.301 53.8633 191.418 53.8833 191.531 53.95C191.651 54.01 191.741 54.1033 191.801 54.23C191.881 54.3967 192.011 54.55 192.191 54.69C192.378 54.83 192.601 54.9433 192.861 55.03C193.121 55.1167 193.395 55.16 193.681 55.16C194.001 55.16 194.295 55.11 194.561 55.01C194.835 54.91 195.055 54.7667 195.221 54.58C195.388 54.3867 195.471 54.15 195.471 53.87C195.471 53.5167 195.331 53.2 195.051 52.92C194.778 52.64 194.325 52.4667 193.691 52.4C192.865 52.32 192.215 52.0767 191.741 51.67C191.268 51.2633 191.031 50.76 191.031 50.16C191.031 49.72 191.155 49.3467 191.401 49.04C191.648 48.7333 191.981 48.5 192.401 48.34C192.828 48.18 193.301 48.1 193.821 48.1C194.228 48.1 194.581 48.1567 194.881 48.27C195.188 48.3833 195.455 48.54 195.681 48.74C195.908 48.94 196.105 49.1767 196.271 49.45C196.365 49.5967 196.401 49.7367 196.381 49.87C196.368 49.9967 196.305 50.0967 196.191 50.17C196.065 50.25 195.928 50.2667 195.781 50.22C195.635 50.1733 195.525 50.0867 195.451 49.96C195.345 49.7667 195.215 49.6033 195.061 49.47C194.908 49.3367 194.728 49.2333 194.521 49.16C194.315 49.08 194.071 49.04 193.791 49.04C193.298 49.0333 192.885 49.1267 192.551 49.32C192.218 49.5067 192.051 49.7967 192.051 50.19C192.051 50.39 192.101 50.5833 192.201 50.77C192.308 50.95 192.498 51.1067 192.771 51.24C193.051 51.3733 193.451 51.4667 193.971 51.52C194.765 51.6 195.381 51.8433 195.821 52.25C196.268 52.65 196.491 53.18 196.491 53.84C196.491 54.22 196.411 54.55 196.251 54.83C196.098 55.11 195.888 55.3467 195.621 55.54C195.361 55.7267 195.061 55.8667 194.721 55.96C194.388 56.0533 194.041 56.1 193.681 56.1ZM197.776 56C197.589 56 197.446 55.92 197.346 55.76C197.246 55.6 197.236 55.43 197.316 55.25L200.126 48.54C200.226 48.3067 200.389 48.19 200.616 48.19C200.856 48.19 201.019 48.3067 201.106 48.54L203.926 55.27C203.999 55.4567 203.986 55.6267 203.886 55.78C203.793 55.9267 203.649 56 203.456 56C203.356 56 203.259 55.9733 203.166 55.92C203.079 55.86 203.016 55.78 202.976 55.68L200.496 49.52H200.776L198.256 55.68C198.209 55.7867 198.139 55.8667 198.046 55.92C197.959 55.9733 197.869 56 197.776 56ZM198.306 54.28L198.706 53.42H202.626L203.026 54.28H198.306ZM206.626 56C206.48 56 206.356 55.95 206.256 55.85C206.156 55.75 206.106 55.6267 206.106 55.48V48.19H207.146V55.48C207.146 55.6267 207.096 55.75 206.996 55.85C206.896 55.95 206.773 56 206.626 56ZM203.946 49.15C203.806 49.15 203.69 49.1067 203.596 49.02C203.51 48.9267 203.466 48.81 203.466 48.67C203.466 48.53 203.51 48.4167 203.596 48.33C203.69 48.2367 203.806 48.19 203.946 48.19H209.296C209.436 48.19 209.55 48.2367 209.636 48.33C209.73 48.4167 209.776 48.53 209.776 48.67C209.776 48.81 209.73 48.9267 209.636 49.02C209.55 49.1067 209.436 49.15 209.296 49.15H203.946ZM211.448 56C211.301 56 211.178 55.95 211.078 55.85C210.978 55.75 210.928 55.6267 210.928 55.48V48.71C210.928 48.5567 210.978 48.4333 211.078 48.34C211.178 48.24 211.301 48.19 211.448 48.19C211.601 48.19 211.724 48.24 211.818 48.34C211.918 48.4333 211.968 48.5567 211.968 48.71V55.48C211.968 55.6267 211.918 55.75 211.818 55.85C211.724 55.95 211.601 56 211.448 56ZM217.575 56.1C216.988 56.1 216.452 56.0033 215.965 55.81C215.478 55.61 215.058 55.3333 214.705 54.98C214.358 54.62 214.088 54.1967 213.895 53.71C213.702 53.2167 213.605 52.6767 213.605 52.09C213.605 51.5033 213.702 50.9667 213.895 50.48C214.088 49.9933 214.358 49.5733 214.705 49.22C215.058 48.86 215.478 48.5833 215.965 48.39C216.452 48.19 216.988 48.09 217.575 48.09C218.162 48.09 218.695 48.19 219.175 48.39C219.662 48.5833 220.082 48.86 220.435 49.22C220.788 49.5733 221.062 49.9933 221.255 50.48C221.448 50.9667 221.545 51.5033 221.545 52.09C221.545 52.6767 221.448 53.2167 221.255 53.71C221.062 54.1967 220.788 54.62 220.435 54.98C220.082 55.3333 219.662 55.61 219.175 55.81C218.695 56.0033 218.162 56.1 217.575 56.1ZM217.575 55.16C218.008 55.16 218.405 55.0833 218.765 54.93C219.132 54.77 219.448 54.5533 219.715 54.28C219.982 54 220.185 53.6733 220.325 53.3C220.472 52.9267 220.545 52.5233 220.545 52.09C220.545 51.6567 220.472 51.2533 220.325 50.88C220.185 50.5067 219.982 50.1833 219.715 49.91C219.448 49.63 219.132 49.4133 218.765 49.26C218.405 49.1067 218.008 49.03 217.575 49.03C217.142 49.03 216.742 49.1067 216.375 49.26C216.015 49.4133 215.702 49.63 215.435 49.91C215.175 50.1833 214.972 50.5067 214.825 50.88C214.678 51.2533 214.605 51.6567 214.605 52.09C214.605 52.5233 214.678 52.9267 214.825 53.3C214.972 53.6733 215.175 54 215.435 54.28C215.702 54.5533 216.015 54.77 216.375 54.93C216.742 55.0833 217.142 55.16 217.575 55.16ZM223.684 56C223.537 56 223.414 55.95 223.314 55.85C223.22 55.75 223.174 55.6267 223.174 55.48V48.71C223.174 48.5567 223.22 48.4333 223.314 48.34C223.414 48.24 223.537 48.19 223.684 48.19C223.844 48.19 223.977 48.2533 224.084 48.38L228.444 54.18V48.71C228.444 48.5567 228.494 48.4333 228.594 48.34C228.694 48.24 228.817 48.19 228.964 48.19C229.117 48.19 229.24 48.24 229.334 48.34C229.427 48.4333 229.474 48.5567 229.474 48.71V55.48C229.474 55.6267 229.427 55.75 229.334 55.85C229.24 55.95 229.117 56 228.964 56C228.897 56 228.824 55.9867 228.744 55.96C228.67 55.9267 228.61 55.88 228.564 55.82L224.204 50.02V55.48C224.204 55.6267 224.154 55.75 224.054 55.85C223.96 55.95 223.837 56 223.684 56Z" fill="#FF7A00"/>
</svg>
