<svg width="32" height="32" viewBox="0 0 32 32" xmlns="http://www.w3.org/2000/svg">
<path d="M19 15H24C24.5523 15 25 14.5523 25 14C25 13.4477 24.5523 13 24 13H19C18.4477 13 18 13.4477 18 14C18 14.5523 18.4477 15 19 15Z" />
<path d="M19 19H24C24.5523 19 25 18.5523 25 18C25 17.4477 24.5523 17 24 17H19C18.4477 17 18 17.4477 18 18C18 18.5523 18.4477 19 19 19Z" />
<path fill-rule="evenodd" clip-rule="evenodd" d="M11.5125 11C11.5125 11 13.1694 11 14.3409 12.1716C14.3409 12.1716 15.5125 13.3431 15.5125 15C15.5125 15 15.5125 16.6569 14.3409 17.8284C14.3409 17.8284 13.1694 19 11.5125 19C11.5125 19 9.85566 19 8.68408 17.8284C8.68408 17.8284 7.51251 16.6569 7.51251 15C7.51251 15 7.51251 13.3431 8.68409 12.1716C8.68409 12.1716 9.85566 11 11.5125 11ZM11.5125 13C11.5125 13 10.6841 13 10.0983 13.5858C10.0983 13.5858 9.51251 14.1716 9.51251 15C9.51251 15 9.51251 15.8284 10.0983 16.4142C10.0983 16.4142 10.6841 17 11.5125 17C11.5125 17 12.3409 17 12.9267 16.4142C12.9267 16.4142 13.5125 15.8284 13.5125 15C13.5125 15 13.5125 14.1716 12.9267 13.5858C12.9267 13.5858 12.3409 13 11.5125 13Z" />
<path d="M13.352 19.6223C14.1631 20.2519 14.4183 21.2461 14.4183 21.2461L14.4185 21.2471C14.5318 21.6896 14.9308 22 15.3875 22L15.4076 21.9998C15.4845 21.9983 15.561 21.9879 15.6356 21.9688C16.078 21.8555 16.3875 21.4568 16.3875 21L16.3873 20.9799C16.3858 20.903 16.3753 20.8265 16.3563 20.752C15.9314 19.0927 14.5784 18.0424 14.5784 18.0424C13.2253 16.9922 11.5125 16.9922 11.5125 16.9922C9.79969 16.9922 8.44665 18.0424 8.44665 18.0424C7.09361 19.0927 6.66876 20.752 6.66876 20.752C6.64801 20.833 6.63751 20.9164 6.63751 21C6.63751 21.0143 6.63782 21.0285 6.63842 21.0427C6.64545 21.2074 6.6931 21.3678 6.77711 21.5096C6.91227 21.7378 7.13254 21.903 7.38947 21.9688C7.47052 21.9895 7.55385 22 7.63751 22C7.65174 22 7.66596 21.9997 7.68017 21.9991C7.84487 21.9921 8.00529 21.9444 8.14713 21.8604C8.37532 21.7253 8.54048 21.505 8.60626 21.2481C8.86117 20.2525 9.673 19.6223 9.673 19.6223C10.4848 18.9922 11.5125 18.9922 11.5125 18.9922C12.5402 18.9922 13.352 19.6223 13.352 19.6223Z" />
<path fill-rule="evenodd" clip-rule="evenodd" d="M3 7C3 7 3 6.17157 3.58579 5.58579C3.58579 5.58579 4.17157 5 5 5H27C27 5 27.8284 5 28.4142 5.58579C28.4142 5.58579 29 6.17157 29 7V25C29 25 29 25.8284 28.4142 26.4142C28.4142 26.4142 27.8284 27 27 27H5C5 27 4.17157 27 3.58579 26.4142C3.58579 26.4142 3 25.8284 3 25V7ZM5 7V25H27V7H5Z"/>
</svg>
