<svg width="30" height="30" viewBox="0 0 30 30" fill="none" xmlns="http://www.w3.org/2000/svg">
<path d="M15.92 5.41294L22.43 9.04398C23.19 9.46811 23.19 10.6785 22.43 11.1026L15.92 14.7336C15.34 15.0543 14.66 15.0543 14.08 14.7336L7.57 11.1026C6.81 10.6785 6.81 9.46811 7.57 9.04398L14.08 5.41294C14.66 5.09225 15.34 5.09225 15.92 5.41294Z" stroke="white" stroke-width="1.5" stroke-linecap="round" stroke-linejoin="round"/>
<path d="M6.61 13.5542L12.66 16.6886C13.41 17.0817 13.89 17.8783 13.89 18.7473V24.6645C13.89 25.5231 13.02 26.0714 12.28 25.6886L6.23 22.5542C5.48 22.1611 5 21.3645 5 20.4955V14.5783C5 13.7197 5.87 13.1714 6.61 13.5542Z" stroke="white" stroke-width="1.5" stroke-linecap="round" stroke-linejoin="round"/>
<path d="M23.3901 13.5542L17.3401 16.6886C16.5901 17.0817 16.1101 17.8783 16.1101 18.7473V24.6645C16.1101 25.5231 16.9801 26.0714 17.7201 25.6886L23.7701 22.5542C24.5201 22.1611 25.0001 21.3645 25.0001 20.4955V14.5783C25.0001 13.7197 24.1301 13.1714 23.3901 13.5542Z" stroke="white" stroke-width="1.5" stroke-linecap="round" stroke-linejoin="round"/>
</svg>
