<svg width="30" height="30" viewBox="0 0 30 30" fill="none" xmlns="http://www.w3.org/2000/svg">
<path d="M20 10.9667C19.95 10.9583 19.8917 10.9583 19.8417 10.9667C18.6917 10.925 17.775 9.98332 17.775 8.81666C17.775 7.62499 18.7334 6.66666 19.925 6.66666C21.1167 6.66666 22.075 7.63332 22.075 8.81666C22.0667 9.98332 21.15 10.925 20 10.9667Z" stroke="white" stroke-width="1.5" stroke-linecap="round" stroke-linejoin="round"/>
<path d="M19.1417 17.0333C20.2834 17.225 21.5417 17.025 22.425 16.4333C23.6 15.65 23.6 14.3667 22.425 13.5833C21.5334 12.9917 20.2584 12.7917 19.1167 12.9917" stroke="white" stroke-width="1.5" stroke-linecap="round" stroke-linejoin="round"/>
<path d="M9.97496 10.9667C10.025 10.9583 10.0833 10.9583 10.1333 10.9667C11.2833 10.925 12.2 9.98332 12.2 8.81666C12.2 7.62499 11.2416 6.66666 10.05 6.66666C8.8583 6.66666 7.89996 7.63332 7.89996 8.81666C7.9083 9.98332 8.82496 10.925 9.97496 10.9667Z" stroke="white" stroke-width="1.5" stroke-linecap="round" stroke-linejoin="round"/>
<path d="M10.8333 17.0333C9.69168 17.225 8.43335 17.025 7.55001 16.4333C6.37501 15.65 6.37501 14.3667 7.55001 13.5833C8.44168 12.9917 9.71668 12.7917 10.8583 12.9917" stroke="white" stroke-width="1.5" stroke-linecap="round" stroke-linejoin="round"/>
<path d="M15 17.1917C14.95 17.1833 14.8916 17.1833 14.8416 17.1917C13.6916 17.15 12.775 16.2083 12.775 15.0417C12.775 13.85 13.7333 12.8917 14.925 12.8917C16.1166 12.8917 17.075 13.8583 17.075 15.0417C17.0666 16.2083 16.15 17.1583 15 17.1917Z" stroke="white" stroke-width="1.5" stroke-linecap="round" stroke-linejoin="round"/>
<path d="M12.575 19.8166C11.4 20.6 11.4 21.8833 12.575 22.6666C13.9083 23.5583 16.0916 23.5583 17.425 22.6666C18.6 21.8833 18.6 20.6 17.425 19.8166C16.1 18.9333 13.9083 18.9333 12.575 19.8166Z" stroke="white" stroke-width="1.5" stroke-linecap="round" stroke-linejoin="round"/>
</svg>
